<svg width="20" height="18" viewBox="0 0 20 18" fill="none" xmlns="http://www.w3.org/2000/svg">
<path d="M9.63869 5.51C9.16599 5.51 8.78384 5.084 8.78384 4.558C8.78384 4.032 9.16599 3.606 9.63869 3.606C10.1114 3.606 10.4935 4.032 10.4935 4.558C10.4935 5.084 10.1096 5.51 9.63869 5.51ZM4.81934 5.51C4.34664 5.51 3.9645 5.084 3.9645 4.558C3.9645 4.032 4.34664 3.606 4.81934 3.606C5.29023 3.606 5.67418 4.032 5.67418 4.558C5.67418 5.084 5.29204 5.51 4.81934 5.51ZM7.22811 0C3.23644 0 0 3.002 0 6.704C0 8.724 0.974373 10.544 2.49751 11.772C2.62066 11.87 2.70035 12.028 2.70035 12.21C2.70035 12.27 2.68949 12.324 2.675 12.38C2.55365 12.886 2.35805 13.694 2.349 13.732C2.33451 13.796 2.31097 13.862 2.31097 13.928C2.31097 14.076 2.41782 14.196 2.55184 14.196C2.60436 14.196 2.64602 14.174 2.6913 14.146L4.2742 13.13C4.39373 13.054 4.5187 13.006 4.65815 13.006C4.73241 13.006 4.80304 13.018 4.87005 13.042C5.60898 13.278 6.40406 13.41 7.22992 13.41C7.36394 13.41 7.49615 13.406 7.62655 13.4C7.46899 12.876 7.38386 12.326 7.38386 11.756C7.38386 8.378 10.336 5.64 13.9763 5.64C14.1085 5.64 14.1411 5.644 14.2715 5.652C13.7263 2.45 10.8358 0 7.22811 0Z" fill="white"/>
<path d="M15.9849 10.806C15.5701 10.806 15.2333 10.432 15.2333 9.96997C15.2333 9.50797 15.5701 9.13197 15.9849 9.13197C16.3996 9.13197 16.7365 9.50597 16.7365 9.96997C16.7365 10.434 16.3996 10.806 15.9849 10.806ZM11.9679 10.806C11.5531 10.806 11.2162 10.432 11.2162 9.96997C11.2162 9.50797 11.5531 9.13197 11.9679 9.13197C12.3826 9.13197 12.7195 9.50597 12.7195 9.96997C12.7195 10.434 12.3826 10.806 11.9679 10.806ZM17.9191 15.98C19.1887 14.956 20.0001 13.44 20.0001 11.756C20.0001 8.66997 17.3034 6.16797 13.9764 6.16797C10.6494 6.16797 7.95264 8.66997 7.95264 11.756C7.95264 14.842 10.6494 17.344 13.9764 17.344C14.6628 17.344 15.3274 17.234 15.9432 17.038C15.9994 17.02 16.0591 17.008 16.1207 17.008C16.2366 17.008 16.3417 17.048 16.4413 17.11L17.7598 17.958C17.796 17.982 17.8322 18 17.8757 18C17.9861 18 18.0767 17.9 18.0767 17.776C18.0767 17.72 18.0568 17.666 18.0441 17.612C18.0369 17.58 17.8739 16.906 17.7724 16.484C17.7598 16.438 17.7489 16.394 17.7489 16.344C17.7489 16.194 17.8159 16.06 17.9191 15.98Z" fill="white"/>
</svg>
