<svg width="20" height="20" viewBox="0 0 20 20" fill="none" xmlns="http://www.w3.org/2000/svg">
<circle cx="10" cy="10" r="10" fill="white"/>
<mask id="mask0_275_1156" style="mask-type:alpha" maskUnits="userSpaceOnUse" x="0" y="0" width="20" height="20">
<circle cx="10" cy="10" r="10" fill="white"/>
</mask>
<g mask="url(#mask0_275_1156)">
<path d="M12.4399 7.60139L15.8798 7.33942L14.4779 4.65433C14.1498 4.02601 13.4124 3.81305 12.842 4.18064L9.99058 6.02028L7.13794 4.18064C6.56658 3.81232 5.83009 4.02601 5.50203 4.65433L4.09916 7.33942L7.53904 7.60139L6.88365 8.02411L9.98936 7.78714L13.0951 8.02411L12.4399 7.60139ZM14.9242 19.9765H5.05574C3.99803 19.9765 3.14062 19.1164 3.14062 18.0553V10.0475H16.8391V18.0555C16.8393 19.1164 15.9819 19.9765 14.9242 19.9765Z" fill="#FF5D50"/>
<path d="M16.6611 11.9928H3.3186C2.59041 11.9928 2 11.4005 2 10.6697V8.02387C2 7.29311 2.59041 6.70081 3.3186 6.70081H16.6609C17.3893 6.70081 17.9795 7.29286 17.9795 8.02387V10.6697C17.9797 11.4005 17.3893 11.9928 16.6611 11.9928Z" fill="#FFDF99"/>
</g>
</svg>
