<svg width="32" height="40" viewBox="0 0 32 40" fill="none" xmlns="http://www.w3.org/2000/svg">
<path d="M26.3572 32.0967H12.4852C15.5957 29.6314 18.6191 27.0081 21.5557 24.2268C23.584 22.3304 25.3409 20.2286 26.8263 17.9214C28.1017 15.9302 28.9466 13.8284 29.361 11.6159C29.5343 10.3201 29.545 9.04006 29.3932 7.77582C29.1215 6.25873 28.5133 4.94708 27.5685 3.84087C26.5597 2.73465 25.3113 1.9287 23.8234 1.42301C22.0845 0.885702 20.2736 0.601248 18.3906 0.569642C16.4606 0.632853 14.5385 0.948913 12.6244 1.51782C10.4443 2.14994 8.33612 3.03491 6.29991 4.17273L5.50207 11.3315C6.91222 10.5097 8.39585 9.83021 9.95295 9.29291C11.5421 8.7556 13.1256 8.45535 14.7036 8.39214C16.3036 8.39214 17.6895 8.83462 18.8614 9.71959C19.7062 10.4465 20.0656 11.4105 19.9393 12.6115C19.6601 13.9706 19.1028 15.2664 18.2676 16.4991C17.0693 18.2058 15.715 19.7861 14.2047 21.24C12.5734 22.8519 10.9016 24.4164 9.18934 25.9335C6.58391 28.2407 3.95649 30.4847 1.30708 32.6656L0.270862 39.208H25.2309L26.3572 32.0967Z" fill="#FFE6D2"/>
</svg>
